<mxfile host="app.diagrams.net" agent="Mozilla/5.0 (Macintosh; Intel Mac OS X 10_15_7) AppleWebKit/537.36 (KHTML, like Gecko) Chrome/126.0.0.0 Safari/537.36" version="24.7.6">
  <diagram name="Page-1" id="2xl7nEOlKwetNAwT9VZm">
    <mxGraphModel dx="1401" dy="1291" grid="0" gridSize="10" guides="1" tooltips="1" connect="1" arrows="1" fold="1" page="0" pageScale="1" pageWidth="850" pageHeight="1100" math="0" shadow="0">
      <root>
        <mxCell id="0" />
        <mxCell id="1" parent="0" />
        <mxCell id="WFil_iT3Ffga0F9Wuyv7-1" value="User" style="rounded=0;whiteSpace=wrap;html=1;" vertex="1" parent="1">
          <mxGeometry x="-72" y="-45" width="120" height="60" as="geometry" />
        </mxCell>
        <mxCell id="WFil_iT3Ffga0F9Wuyv7-2" value="Frontend" style="rounded=0;whiteSpace=wrap;html=1;" vertex="1" parent="1">
          <mxGeometry x="136" y="-45" width="120" height="60" as="geometry" />
        </mxCell>
        <mxCell id="WFil_iT3Ffga0F9Wuyv7-3" value="Backend" style="rounded=0;whiteSpace=wrap;html=1;" vertex="1" parent="1">
          <mxGeometry x="337" y="-47" width="120" height="60" as="geometry" />
        </mxCell>
        <mxCell id="WFil_iT3Ffga0F9Wuyv7-4" value="" style="endArrow=none;dashed=1;html=1;rounded=0;entryX=0.5;entryY=1;entryDx=0;entryDy=0;" edge="1" parent="1" source="WFil_iT3Ffga0F9Wuyv7-16" target="WFil_iT3Ffga0F9Wuyv7-1">
          <mxGeometry width="50" height="50" relative="1" as="geometry">
            <mxPoint x="-7" y="436" as="sourcePoint" />
            <mxPoint x="188" y="136" as="targetPoint" />
          </mxGeometry>
        </mxCell>
        <mxCell id="WFil_iT3Ffga0F9Wuyv7-5" value="" style="endArrow=none;dashed=1;html=1;rounded=0;entryX=0.5;entryY=1;entryDx=0;entryDy=0;" edge="1" parent="1" source="WFil_iT3Ffga0F9Wuyv7-7" target="WFil_iT3Ffga0F9Wuyv7-2">
          <mxGeometry width="50" height="50" relative="1" as="geometry">
            <mxPoint x="201" y="433" as="sourcePoint" />
            <mxPoint x="-2" y="25" as="targetPoint" />
          </mxGeometry>
        </mxCell>
        <mxCell id="WFil_iT3Ffga0F9Wuyv7-6" value="" style="endArrow=none;dashed=1;html=1;rounded=0;entryX=0.5;entryY=1;entryDx=0;entryDy=0;" edge="1" parent="1" source="WFil_iT3Ffga0F9Wuyv7-19" target="WFil_iT3Ffga0F9Wuyv7-3">
          <mxGeometry width="50" height="50" relative="1" as="geometry">
            <mxPoint x="403" y="433" as="sourcePoint" />
            <mxPoint x="206" y="25" as="targetPoint" />
          </mxGeometry>
        </mxCell>
        <mxCell id="WFil_iT3Ffga0F9Wuyv7-8" value="" style="endArrow=none;dashed=1;html=1;rounded=0;entryX=0.5;entryY=1;entryDx=0;entryDy=0;" edge="1" parent="1" source="WFil_iT3Ffga0F9Wuyv7-40" target="WFil_iT3Ffga0F9Wuyv7-7">
          <mxGeometry width="50" height="50" relative="1" as="geometry">
            <mxPoint x="201" y="433" as="sourcePoint" />
            <mxPoint x="196" y="15" as="targetPoint" />
          </mxGeometry>
        </mxCell>
        <mxCell id="WFil_iT3Ffga0F9Wuyv7-7" value="" style="rounded=1;whiteSpace=wrap;html=1;" vertex="1" parent="1">
          <mxGeometry x="182.5" y="43" width="27" height="43" as="geometry" />
        </mxCell>
        <mxCell id="WFil_iT3Ffga0F9Wuyv7-10" value="Request Website" style="text;html=1;align=center;verticalAlign=middle;whiteSpace=wrap;rounded=0;" vertex="1" parent="1">
          <mxGeometry x="62" y="7" width="60" height="30" as="geometry" />
        </mxCell>
        <mxCell id="WFil_iT3Ffga0F9Wuyv7-12" value="" style="endArrow=classic;html=1;rounded=0;entryX=0;entryY=0;entryDx=0;entryDy=0;" edge="1" parent="1" target="WFil_iT3Ffga0F9Wuyv7-7">
          <mxGeometry width="50" height="50" relative="1" as="geometry">
            <mxPoint x="5" y="40" as="sourcePoint" />
            <mxPoint x="308" y="223" as="targetPoint" />
          </mxGeometry>
        </mxCell>
        <mxCell id="WFil_iT3Ffga0F9Wuyv7-17" value="" style="endArrow=none;dashed=1;html=1;rounded=0;entryX=0.5;entryY=1;entryDx=0;entryDy=0;" edge="1" parent="1" target="WFil_iT3Ffga0F9Wuyv7-16">
          <mxGeometry width="50" height="50" relative="1" as="geometry">
            <mxPoint x="-7" y="436" as="sourcePoint" />
            <mxPoint x="-12" y="15" as="targetPoint" />
          </mxGeometry>
        </mxCell>
        <mxCell id="WFil_iT3Ffga0F9Wuyv7-16" value="" style="rounded=1;whiteSpace=wrap;html=1;" vertex="1" parent="1">
          <mxGeometry x="-24" y="37" width="30" height="288" as="geometry" />
        </mxCell>
        <mxCell id="WFil_iT3Ffga0F9Wuyv7-18" value="Send Website Landing Page" style="text;html=1;align=center;verticalAlign=middle;whiteSpace=wrap;rounded=0;" vertex="1" parent="1">
          <mxGeometry x="46" y="56" width="106" height="30" as="geometry" />
        </mxCell>
        <mxCell id="WFil_iT3Ffga0F9Wuyv7-23" value="Database" style="rounded=0;whiteSpace=wrap;html=1;" vertex="1" parent="1">
          <mxGeometry x="542" y="-47" width="120" height="60" as="geometry" />
        </mxCell>
        <mxCell id="WFil_iT3Ffga0F9Wuyv7-24" value="" style="endArrow=none;dashed=1;html=1;rounded=0;entryX=0.5;entryY=1;entryDx=0;entryDy=0;" edge="1" parent="1" target="WFil_iT3Ffga0F9Wuyv7-23">
          <mxGeometry width="50" height="50" relative="1" as="geometry">
            <mxPoint x="608" y="433" as="sourcePoint" />
            <mxPoint x="411" y="25" as="targetPoint" />
          </mxGeometry>
        </mxCell>
        <mxCell id="WFil_iT3Ffga0F9Wuyv7-25" value="" style="endArrow=none;dashed=1;html=1;rounded=0;entryX=0.5;entryY=1;entryDx=0;entryDy=0;" edge="1" parent="1" target="WFil_iT3Ffga0F9Wuyv7-19">
          <mxGeometry width="50" height="50" relative="1" as="geometry">
            <mxPoint x="403" y="433" as="sourcePoint" />
            <mxPoint x="397" y="13" as="targetPoint" />
          </mxGeometry>
        </mxCell>
        <mxCell id="WFil_iT3Ffga0F9Wuyv7-19" value="" style="rounded=1;whiteSpace=wrap;html=1;" vertex="1" parent="1">
          <mxGeometry x="384" y="146" width="30" height="116" as="geometry" />
        </mxCell>
        <mxCell id="WFil_iT3Ffga0F9Wuyv7-26" value="" style="endArrow=classic;html=1;rounded=0;entryX=0;entryY=0;entryDx=0;entryDy=0;" edge="1" parent="1" target="WFil_iT3Ffga0F9Wuyv7-19">
          <mxGeometry width="50" height="50" relative="1" as="geometry">
            <mxPoint x="5" y="138" as="sourcePoint" />
            <mxPoint x="167" y="223" as="targetPoint" />
          </mxGeometry>
        </mxCell>
        <mxCell id="WFil_iT3Ffga0F9Wuyv7-27" value="Enter Login Details" style="text;html=1;align=center;verticalAlign=middle;whiteSpace=wrap;rounded=0;" vertex="1" parent="1">
          <mxGeometry x="58" y="114" width="116" height="30" as="geometry" />
        </mxCell>
        <mxCell id="WFil_iT3Ffga0F9Wuyv7-29" value="" style="rounded=1;whiteSpace=wrap;html=1;" vertex="1" parent="1">
          <mxGeometry x="590" y="146" width="30" height="116" as="geometry" />
        </mxCell>
        <mxCell id="WFil_iT3Ffga0F9Wuyv7-30" value="" style="endArrow=classic;html=1;rounded=0;exitX=1;exitY=0;exitDx=0;exitDy=0;entryX=0;entryY=0;entryDx=0;entryDy=0;" edge="1" parent="1" source="WFil_iT3Ffga0F9Wuyv7-19" target="WFil_iT3Ffga0F9Wuyv7-29">
          <mxGeometry width="50" height="50" relative="1" as="geometry">
            <mxPoint x="477" y="132" as="sourcePoint" />
            <mxPoint x="527" y="82" as="targetPoint" />
          </mxGeometry>
        </mxCell>
        <mxCell id="WFil_iT3Ffga0F9Wuyv7-32" value="Validate Credentials&lt;div&gt;&lt;br&gt;&lt;/div&gt;" style="text;strokeColor=none;fillColor=none;align=left;verticalAlign=middle;spacingLeft=4;spacingRight=4;overflow=hidden;points=[[0,0.5],[1,0.5]];portConstraint=eastwest;rotatable=0;whiteSpace=wrap;html=1;" vertex="1" parent="1">
          <mxGeometry x="439" y="122" width="121" height="22" as="geometry" />
        </mxCell>
        <mxCell id="WFil_iT3Ffga0F9Wuyv7-34" value="" style="endArrow=classic;html=1;rounded=0;exitX=1;exitY=0.25;exitDx=0;exitDy=0;entryX=0;entryY=0.25;entryDx=0;entryDy=0;" edge="1" parent="1" source="WFil_iT3Ffga0F9Wuyv7-19" target="WFil_iT3Ffga0F9Wuyv7-29">
          <mxGeometry width="50" height="50" relative="1" as="geometry">
            <mxPoint x="416" y="174" as="sourcePoint" />
            <mxPoint x="592" y="174" as="targetPoint" />
          </mxGeometry>
        </mxCell>
        <mxCell id="WFil_iT3Ffga0F9Wuyv7-35" value="&lt;div&gt;Retrieve User Data&lt;/div&gt;" style="text;strokeColor=none;fillColor=none;align=left;verticalAlign=middle;spacingLeft=4;spacingRight=4;overflow=hidden;points=[[0,0.5],[1,0.5]];portConstraint=eastwest;rotatable=0;whiteSpace=wrap;html=1;" vertex="1" parent="1">
          <mxGeometry x="441" y="150" width="121" height="22" as="geometry" />
        </mxCell>
        <mxCell id="WFil_iT3Ffga0F9Wuyv7-38" value="Return User Data" style="text;html=1;align=center;verticalAlign=middle;whiteSpace=wrap;rounded=0;" vertex="1" parent="1">
          <mxGeometry x="441" y="176" width="120" height="30" as="geometry" />
        </mxCell>
        <mxCell id="WFil_iT3Ffga0F9Wuyv7-39" value="Authentication success" style="text;html=1;align=center;verticalAlign=middle;whiteSpace=wrap;rounded=0;" vertex="1" parent="1">
          <mxGeometry x="445" y="221" width="120" height="30" as="geometry" />
        </mxCell>
        <mxCell id="WFil_iT3Ffga0F9Wuyv7-41" value="" style="endArrow=none;dashed=1;html=1;rounded=0;entryX=0.5;entryY=1;entryDx=0;entryDy=0;" edge="1" parent="1" target="WFil_iT3Ffga0F9Wuyv7-40">
          <mxGeometry width="50" height="50" relative="1" as="geometry">
            <mxPoint x="201" y="433" as="sourcePoint" />
            <mxPoint x="196" y="86" as="targetPoint" />
          </mxGeometry>
        </mxCell>
        <mxCell id="WFil_iT3Ffga0F9Wuyv7-40" value="" style="rounded=1;whiteSpace=wrap;html=1;" vertex="1" parent="1">
          <mxGeometry x="182.5" y="262" width="31" height="21" as="geometry" />
        </mxCell>
        <mxCell id="WFil_iT3Ffga0F9Wuyv7-43" value="Send Home Page" style="text;html=1;align=center;verticalAlign=middle;whiteSpace=wrap;rounded=0;" vertex="1" parent="1">
          <mxGeometry x="250" y="232" width="87" height="30" as="geometry" />
        </mxCell>
        <mxCell id="WFil_iT3Ffga0F9Wuyv7-45" value="Display Home Page" style="text;html=1;align=center;verticalAlign=middle;whiteSpace=wrap;rounded=0;" vertex="1" parent="1">
          <mxGeometry x="43" y="253" width="79" height="30" as="geometry" />
        </mxCell>
        <mxCell id="WFil_iT3Ffga0F9Wuyv7-81" value="Frontend" style="rounded=0;whiteSpace=wrap;html=1;" vertex="1" parent="1">
          <mxGeometry x="138" y="467" width="120" height="60" as="geometry" />
        </mxCell>
        <mxCell id="WFil_iT3Ffga0F9Wuyv7-82" value="" style="endArrow=none;dashed=1;html=1;dashPattern=1 3;strokeWidth=2;rounded=0;exitX=0.5;exitY=1;exitDx=0;exitDy=0;" edge="1" parent="1" source="WFil_iT3Ffga0F9Wuyv7-81">
          <mxGeometry width="50" height="50" relative="1" as="geometry">
            <mxPoint x="446" y="371" as="sourcePoint" />
            <mxPoint x="200" y="1034.5" as="targetPoint" />
          </mxGeometry>
        </mxCell>
        <mxCell id="WFil_iT3Ffga0F9Wuyv7-83" value="User" style="rounded=0;whiteSpace=wrap;html=1;" vertex="1" parent="1">
          <mxGeometry x="-54" y="465" width="120" height="60" as="geometry" />
        </mxCell>
        <mxCell id="WFil_iT3Ffga0F9Wuyv7-84" value="" style="endArrow=none;dashed=1;html=1;dashPattern=1 3;strokeWidth=2;rounded=0;exitX=0.5;exitY=1;exitDx=0;exitDy=0;" edge="1" parent="1" source="WFil_iT3Ffga0F9Wuyv7-83">
          <mxGeometry width="50" height="50" relative="1" as="geometry">
            <mxPoint x="254" y="369" as="sourcePoint" />
            <mxPoint x="8" y="1032.5" as="targetPoint" />
          </mxGeometry>
        </mxCell>
        <mxCell id="WFil_iT3Ffga0F9Wuyv7-85" value="Backend" style="rounded=0;whiteSpace=wrap;html=1;" vertex="1" parent="1">
          <mxGeometry x="342" y="465" width="120" height="60" as="geometry" />
        </mxCell>
        <mxCell id="WFil_iT3Ffga0F9Wuyv7-86" value="" style="endArrow=none;dashed=1;html=1;dashPattern=1 3;strokeWidth=2;rounded=0;exitX=0.5;exitY=1;exitDx=0;exitDy=0;" edge="1" parent="1" source="WFil_iT3Ffga0F9Wuyv7-92">
          <mxGeometry width="50" height="50" relative="1" as="geometry">
            <mxPoint x="650" y="369" as="sourcePoint" />
            <mxPoint x="404" y="1032.5" as="targetPoint" />
          </mxGeometry>
        </mxCell>
        <mxCell id="WFil_iT3Ffga0F9Wuyv7-87" value="Evaluator" style="rounded=0;whiteSpace=wrap;html=1;" vertex="1" parent="1">
          <mxGeometry x="545" y="465" width="120" height="60" as="geometry" />
        </mxCell>
        <mxCell id="WFil_iT3Ffga0F9Wuyv7-88" value="" style="endArrow=none;dashed=1;html=1;dashPattern=1 3;strokeWidth=2;rounded=0;exitX=0.5;exitY=1;exitDx=0;exitDy=0;" edge="1" parent="1" source="WFil_iT3Ffga0F9Wuyv7-95">
          <mxGeometry width="50" height="50" relative="1" as="geometry">
            <mxPoint x="853" y="369" as="sourcePoint" />
            <mxPoint x="607" y="1032.5" as="targetPoint" />
          </mxGeometry>
        </mxCell>
        <mxCell id="WFil_iT3Ffga0F9Wuyv7-89" value="Database" style="rounded=0;whiteSpace=wrap;html=1;" vertex="1" parent="1">
          <mxGeometry x="766" y="463" width="120" height="60" as="geometry" />
        </mxCell>
        <mxCell id="WFil_iT3Ffga0F9Wuyv7-90" value="" style="endArrow=none;dashed=1;html=1;dashPattern=1 3;strokeWidth=2;rounded=0;exitX=0.5;exitY=1;exitDx=0;exitDy=0;" edge="1" parent="1" source="WFil_iT3Ffga0F9Wuyv7-105">
          <mxGeometry width="50" height="50" relative="1" as="geometry">
            <mxPoint x="1074" y="367" as="sourcePoint" />
            <mxPoint x="828" y="1030.5" as="targetPoint" />
          </mxGeometry>
        </mxCell>
        <mxCell id="WFil_iT3Ffga0F9Wuyv7-91" value="" style="endArrow=classic;html=1;rounded=0;entryX=0;entryY=0;entryDx=0;entryDy=0;" edge="1" parent="1" target="WFil_iT3Ffga0F9Wuyv7-92">
          <mxGeometry width="50" height="50" relative="1" as="geometry">
            <mxPoint x="33" y="566" as="sourcePoint" />
            <mxPoint x="328" y="571" as="targetPoint" />
          </mxGeometry>
        </mxCell>
        <mxCell id="WFil_iT3Ffga0F9Wuyv7-93" value="" style="endArrow=none;dashed=1;html=1;dashPattern=1 3;strokeWidth=2;rounded=0;exitX=0.5;exitY=1;exitDx=0;exitDy=0;" edge="1" parent="1" source="WFil_iT3Ffga0F9Wuyv7-85" target="WFil_iT3Ffga0F9Wuyv7-92">
          <mxGeometry width="50" height="50" relative="1" as="geometry">
            <mxPoint x="402" y="525" as="sourcePoint" />
            <mxPoint x="404" y="1032.5" as="targetPoint" />
          </mxGeometry>
        </mxCell>
        <mxCell id="WFil_iT3Ffga0F9Wuyv7-92" value="" style="rounded=1;whiteSpace=wrap;html=1;" vertex="1" parent="1">
          <mxGeometry x="387.5" y="565" width="29" height="297" as="geometry" />
        </mxCell>
        <mxCell id="WFil_iT3Ffga0F9Wuyv7-94" value="Submits code for Challenge" style="text;html=1;align=center;verticalAlign=middle;whiteSpace=wrap;rounded=0;" vertex="1" parent="1">
          <mxGeometry x="221" y="537" width="153" height="30" as="geometry" />
        </mxCell>
        <mxCell id="WFil_iT3Ffga0F9Wuyv7-96" value="" style="endArrow=none;dashed=1;html=1;dashPattern=1 3;strokeWidth=2;rounded=0;exitX=0.5;exitY=1;exitDx=0;exitDy=0;" edge="1" parent="1" source="WFil_iT3Ffga0F9Wuyv7-87" target="WFil_iT3Ffga0F9Wuyv7-95">
          <mxGeometry width="50" height="50" relative="1" as="geometry">
            <mxPoint x="605" y="525" as="sourcePoint" />
            <mxPoint x="607" y="1032.5" as="targetPoint" />
          </mxGeometry>
        </mxCell>
        <mxCell id="WFil_iT3Ffga0F9Wuyv7-95" value="" style="rounded=1;whiteSpace=wrap;html=1;" vertex="1" parent="1">
          <mxGeometry x="590" y="621" width="28" height="155" as="geometry" />
        </mxCell>
        <mxCell id="WFil_iT3Ffga0F9Wuyv7-98" value="" style="endArrow=classic;html=1;rounded=0;exitX=0.944;exitY=0.192;exitDx=0;exitDy=0;entryX=0;entryY=0;entryDx=0;entryDy=0;exitPerimeter=0;" edge="1" parent="1" source="WFil_iT3Ffga0F9Wuyv7-92" target="WFil_iT3Ffga0F9Wuyv7-95">
          <mxGeometry width="50" height="50" relative="1" as="geometry">
            <mxPoint x="517" y="534" as="sourcePoint" />
            <mxPoint x="567" y="484" as="targetPoint" />
          </mxGeometry>
        </mxCell>
        <mxCell id="WFil_iT3Ffga0F9Wuyv7-100" value="" style="endArrow=open;endSize=12;dashed=1;html=1;rounded=0;exitX=0;exitY=1;exitDx=0;exitDy=0;" edge="1" parent="1" source="WFil_iT3Ffga0F9Wuyv7-7">
          <mxGeometry width="160" relative="1" as="geometry">
            <mxPoint x="165" y="183" as="sourcePoint" />
            <mxPoint x="5" y="88" as="targetPoint" />
          </mxGeometry>
        </mxCell>
        <mxCell id="WFil_iT3Ffga0F9Wuyv7-101" value="" style="endArrow=open;endSize=12;dashed=1;html=1;rounded=0;exitX=0;exitY=0.5;exitDx=0;exitDy=0;entryX=1;entryY=0.5;entryDx=0;entryDy=0;" edge="1" parent="1" source="WFil_iT3Ffga0F9Wuyv7-29" target="WFil_iT3Ffga0F9Wuyv7-19">
          <mxGeometry width="160" relative="1" as="geometry">
            <mxPoint x="586" y="205" as="sourcePoint" />
            <mxPoint x="406" y="205" as="targetPoint" />
          </mxGeometry>
        </mxCell>
        <mxCell id="WFil_iT3Ffga0F9Wuyv7-102" value="" style="endArrow=open;endSize=12;dashed=1;html=1;rounded=0;exitX=0;exitY=1;exitDx=0;exitDy=0;entryX=1;entryY=1;entryDx=0;entryDy=0;" edge="1" parent="1" source="WFil_iT3Ffga0F9Wuyv7-29" target="WFil_iT3Ffga0F9Wuyv7-19">
          <mxGeometry width="160" relative="1" as="geometry">
            <mxPoint x="589" y="259" as="sourcePoint" />
            <mxPoint x="413" y="259" as="targetPoint" />
          </mxGeometry>
        </mxCell>
        <mxCell id="WFil_iT3Ffga0F9Wuyv7-103" value="" style="endArrow=open;endSize=12;dashed=1;html=1;rounded=0;exitX=0;exitY=1;exitDx=0;exitDy=0;entryX=1;entryY=0;entryDx=0;entryDy=0;" edge="1" parent="1" source="WFil_iT3Ffga0F9Wuyv7-19" target="WFil_iT3Ffga0F9Wuyv7-40">
          <mxGeometry width="160" relative="1" as="geometry">
            <mxPoint x="600" y="272" as="sourcePoint" />
            <mxPoint x="424" y="272" as="targetPoint" />
          </mxGeometry>
        </mxCell>
        <mxCell id="WFil_iT3Ffga0F9Wuyv7-104" value="" style="endArrow=open;endSize=12;dashed=1;html=1;rounded=0;exitX=0;exitY=1;exitDx=0;exitDy=0;" edge="1" parent="1" source="WFil_iT3Ffga0F9Wuyv7-40">
          <mxGeometry width="160" relative="1" as="geometry">
            <mxPoint x="610" y="282" as="sourcePoint" />
            <mxPoint x="7" y="285" as="targetPoint" />
          </mxGeometry>
        </mxCell>
        <mxCell id="WFil_iT3Ffga0F9Wuyv7-106" value="" style="endArrow=none;dashed=1;html=1;dashPattern=1 3;strokeWidth=2;rounded=0;exitX=0.5;exitY=1;exitDx=0;exitDy=0;" edge="1" parent="1" source="WFil_iT3Ffga0F9Wuyv7-89" target="WFil_iT3Ffga0F9Wuyv7-105">
          <mxGeometry width="50" height="50" relative="1" as="geometry">
            <mxPoint x="826" y="523" as="sourcePoint" />
            <mxPoint x="828" y="1030.5" as="targetPoint" />
          </mxGeometry>
        </mxCell>
        <mxCell id="WFil_iT3Ffga0F9Wuyv7-105" value="" style="rounded=1;whiteSpace=wrap;html=1;" vertex="1" parent="1">
          <mxGeometry x="812" y="678" width="28" height="60" as="geometry" />
        </mxCell>
        <mxCell id="WFil_iT3Ffga0F9Wuyv7-107" value="" style="endArrow=classic;html=1;rounded=0;exitX=0.996;exitY=0.381;exitDx=0;exitDy=0;entryX=0;entryY=0;entryDx=0;entryDy=0;exitPerimeter=0;" edge="1" parent="1" source="WFil_iT3Ffga0F9Wuyv7-95" target="WFil_iT3Ffga0F9Wuyv7-105">
          <mxGeometry width="50" height="50" relative="1" as="geometry">
            <mxPoint x="628" y="660" as="sourcePoint" />
            <mxPoint x="801" y="656" as="targetPoint" />
          </mxGeometry>
        </mxCell>
        <mxCell id="WFil_iT3Ffga0F9Wuyv7-108" value="" style="endArrow=open;endSize=12;dashed=1;html=1;rounded=0;exitX=0;exitY=1;exitDx=0;exitDy=0;entryX=1;entryY=0.75;entryDx=0;entryDy=0;" edge="1" parent="1" source="WFil_iT3Ffga0F9Wuyv7-105" target="WFil_iT3Ffga0F9Wuyv7-95">
          <mxGeometry width="160" relative="1" as="geometry">
            <mxPoint x="773" y="623" as="sourcePoint" />
            <mxPoint x="597" y="625" as="targetPoint" />
          </mxGeometry>
        </mxCell>
        <mxCell id="WFil_iT3Ffga0F9Wuyv7-109" value="" style="endArrow=open;endSize=12;dashed=1;html=1;rounded=0;exitX=0;exitY=1;exitDx=0;exitDy=0;entryX=1.017;entryY=0.724;entryDx=0;entryDy=0;entryPerimeter=0;" edge="1" parent="1" source="WFil_iT3Ffga0F9Wuyv7-95" target="WFil_iT3Ffga0F9Wuyv7-92">
          <mxGeometry width="160" relative="1" as="geometry">
            <mxPoint x="605" y="799" as="sourcePoint" />
            <mxPoint x="429" y="801" as="targetPoint" />
          </mxGeometry>
        </mxCell>
        <mxCell id="WFil_iT3Ffga0F9Wuyv7-110" value="" style="rounded=1;whiteSpace=wrap;html=1;" vertex="1" parent="1">
          <mxGeometry x="-6" y="547" width="29" height="318" as="geometry" />
        </mxCell>
        <mxCell id="WFil_iT3Ffga0F9Wuyv7-111" value="" style="endArrow=open;endSize=12;dashed=1;html=1;rounded=0;exitX=0;exitY=1;exitDx=0;exitDy=0;entryX=1;entryY=1;entryDx=0;entryDy=0;" edge="1" parent="1" source="WFil_iT3Ffga0F9Wuyv7-92" target="WFil_iT3Ffga0F9Wuyv7-110">
          <mxGeometry width="160" relative="1" as="geometry">
            <mxPoint x="368" y="882" as="sourcePoint" />
            <mxPoint x="195" y="886" as="targetPoint" />
          </mxGeometry>
        </mxCell>
        <mxCell id="WFil_iT3Ffga0F9Wuyv7-112" value="Display Results / Feedb&lt;span style=&quot;color: rgba(0, 0, 0, 0); font-family: monospace; font-size: 0px; text-align: start; text-wrap: nowrap;&quot;&gt;%3CmxGraphModel%3E%3Croot%3E%3CmxCell%20id%3D%220%22%2F%3E%3CmxCell%20id%3D%221%22%20parent%3D%220%22%2F%3E%3CmxCell%20id%3D%222%22%20value%3D%22Submits%20code%20for%20Challenge%22%20style%3D%22text%3Bhtml%3D1%3Balign%3Dcenter%3BverticalAlign%3Dmiddle%3BwhiteSpace%3Dwrap%3Brounded%3D0%3B%22%20vertex%3D%221%22%20parent%3D%221%22%3E%3CmxGeometry%20x%3D%22221%22%20y%3D%22537%22%20width%3D%22153%22%20height%3D%2230%22%20as%3D%22geometry%22%2F%3E%3C%2FmxCell%3E%3C%2Froot%3E%3C%2FmxGraphModel%3E&lt;/span&gt;ack" style="text;html=1;align=center;verticalAlign=middle;whiteSpace=wrap;rounded=0;" vertex="1" parent="1">
          <mxGeometry x="209.5" y="828" width="153" height="30" as="geometry" />
        </mxCell>
        <mxCell id="WFil_iT3Ffga0F9Wuyv7-113" value="Return Results" style="text;html=1;align=center;verticalAlign=middle;whiteSpace=wrap;rounded=0;" vertex="1" parent="1">
          <mxGeometry x="425" y="748" width="153" height="30" as="geometry" />
        </mxCell>
        <mxCell id="WFil_iT3Ffga0F9Wuyv7-114" value="Return Evaluation Results" style="text;html=1;align=center;verticalAlign=middle;whiteSpace=wrap;rounded=0;" vertex="1" parent="1">
          <mxGeometry x="639" y="708" width="153" height="30" as="geometry" />
        </mxCell>
        <mxCell id="WFil_iT3Ffga0F9Wuyv7-115" value="Evaluate Code" style="text;html=1;align=center;verticalAlign=middle;whiteSpace=wrap;rounded=0;" vertex="1" parent="1">
          <mxGeometry x="642" y="650" width="153" height="30" as="geometry" />
        </mxCell>
        <mxCell id="WFil_iT3Ffga0F9Wuyv7-116" value="Save Submission Data" style="text;html=1;align=center;verticalAlign=middle;whiteSpace=wrap;rounded=0;" vertex="1" parent="1">
          <mxGeometry x="432" y="588" width="153" height="30" as="geometry" />
        </mxCell>
      </root>
    </mxGraphModel>
  </diagram>
</mxfile>
